<svg width="22" height="26" viewBox="0 0 22 26" fill="none" xmlns="http://www.w3.org/2000/svg">
<path d="M21.9997 16.3845C22.0039 16.6356 21.9639 16.8837 21.8809 17.1212C21.2671 18.8952 20.3347 20.5007 19.1097 21.8953C19.1082 21.8995 19.1055 21.9021 19.1029 21.9051C19.0588 21.9534 19.0173 22.0002 18.9747 22.0488C18.9374 22.0888 18.9 22.1302 18.8631 22.1702L18.8589 22.1744C18.834 22.1977 18.8092 22.22 18.7843 22.2419V22.1468L18.7869 21.4338L18.7895 20.0708L18.7978 17.614C18.8129 16.8124 18.8239 16.0444 18.8295 15.3201H16.5024V24.115C15.3852 24.9012 14.3174 25.4117 13.4826 25.7412V11.7276H16.5024V13.3511H18.831C18.8212 11.5511 18.773 10.2005 18.6862 9.54937L18.6795 9.48867C18.6436 9.20437 18.6052 8.90915 18.46 8.62938C18.1523 8.03214 17.7674 7.48429 17.3206 7.00431C15.2664 4.7986 12.3892 4.53919 11.2468 4.52826H11.1793C10.0372 4.53919 7.15958 4.7986 5.10431 7.00431C4.65751 7.48429 4.27405 8.03214 3.96639 8.62938C3.8216 8.90952 3.78276 9.20475 3.74694 9.48867L3.73865 9.54937C3.65306 10.2005 3.60329 11.5511 3.59386 13.3511H5.8535V11.7276H8.87325V25.7412C8.03998 25.4117 6.97257 24.9012 5.8535 24.1161V15.3197H3.59688C3.60254 16.044 3.61347 16.8124 3.62855 17.6136L3.63534 20.0704L3.63949 21.4335L3.64099 22.1465V22.2415C3.61611 22.2192 3.59122 22.1974 3.56785 22.174L3.56219 22.1698C3.52486 22.1299 3.48754 22.0884 3.45172 22.0484C3.40911 22.0002 3.36764 21.9534 3.32352 21.9048C3.31937 21.9021 3.31787 21.8991 3.31523 21.895C2.09021 20.5003 1.15777 18.8948 0.545451 17.1208C0.462879 16.8837 0.422534 16.6352 0.426682 16.3841C0.464009 13.7037 0.499829 11.0236 0.537156 8.34471C0.542812 7.99971 0.628024 7.65509 0.785252 7.34743C1.47487 6.0025 2.38392 4.8216 3.48754 3.83826C6.24638 1.37465 9.44674 0.840751 11.1351 0.744227C11.1476 0.742719 11.16 0.742719 11.171 0.742719H11.1808C11.1917 0.742719 11.203 0.741211 11.2151 0.741211C11.226 0.741211 11.2358 0.742719 11.2452 0.742719H11.2551C11.266 0.742719 11.2773 0.742719 11.2894 0.744227C12.9778 0.840751 16.1781 1.37465 18.9385 3.83826C20.0421 4.82197 20.9496 6.0025 21.6393 7.34743C21.798 7.65509 21.8836 7.99971 21.8874 8.34471C21.9266 11.024 21.9624 13.7044 21.9997 16.3845Z" fill="white"/>
</svg>
