<svg width="32" height="33" viewBox="0 0 32 33" fill="none" xmlns="http://www.w3.org/2000/svg">
<g clip-path="url(#clip0_3_40206)">
<g clip-path="url(#clip1_3_40206)">
<path fill-rule="evenodd" clip-rule="evenodd" d="M1.77734 8.58077V21.0463C1.77734 21.4844 2.1286 21.8395 2.56189 21.8395C2.66772 21.8395 2.77245 21.8179 2.86979 21.7759L7.28299 19.8721L1.90165 8.55215C1.88601 8.51921 1.84694 8.50539 1.8144 8.52117C1.79175 8.53219 1.77734 8.55535 1.77734 8.58077Z" fill="white" stroke="white" stroke-width="2.76824" stroke-linecap="square"/>
<path fill-rule="evenodd" clip-rule="evenodd" d="M1.87255 9.1706L6.69987 19.3251C6.88067 19.7054 7.32419 19.876 7.70925 19.7134L21.818 13.758C22.2179 13.5893 22.4067 13.1247 22.2397 12.7205C22.2337 12.706 22.2273 12.6917 22.2205 12.6775L17.2781 2.46335C17.0948 2.0845 16.6502 1.91694 16.2664 2.08195L2.2727 8.09704C1.87395 8.26847 1.68814 8.7342 1.85767 9.13735C1.86238 9.14855 1.86734 9.15962 1.87255 9.1706Z" stroke="white" stroke-width="2.76824" stroke-linecap="square"/>
<path fill-rule="evenodd" clip-rule="evenodd" d="M14.7881 17.6067V29.6704C14.7881 30.1085 15.1393 30.4636 15.5726 30.4636C15.6769 30.4636 15.7801 30.4426 15.8763 30.4018L29.5813 24.5853C29.9698 24.4204 30.2225 24.036 30.2225 23.6101V11.4719C30.2225 11.0338 29.8712 10.6787 29.438 10.6787C29.3324 10.6787 29.228 10.7002 29.131 10.742L15.4248 16.6334C15.0388 16.7994 14.7881 17.1825 14.7881 17.6067Z" stroke="white" stroke-width="2.76824" stroke-linecap="square"/>
</g>
</g>
<defs>
<clipPath id="clip0_3_40206">
<rect width="32" height="32" fill="white" transform="translate(0 0.241211)"/>
</clipPath>
<clipPath id="clip1_3_40206">
<rect width="32" height="32" fill="white" transform="translate(0 0.241211)"/>
</clipPath>
</defs>
</svg>
