<svg width="148" height="32" viewBox="0 0 148 32" fill="none" xmlns="http://www.w3.org/2000/svg">
<g clip-path="url(#clip0_3_39183)">
<g clip-path="url(#clip1_3_39183)">
<path fill-rule="evenodd" clip-rule="evenodd" d="M1.77778 8.33919V20.8047C1.77778 21.2428 2.12903 21.5979 2.56233 21.5979C2.66815 21.5979 2.77289 21.5763 2.87022 21.5343L7.28342 19.6305L1.90209 8.31057C1.88644 8.27764 1.84738 8.26382 1.81484 8.27959C1.79218 8.29062 1.77778 8.31377 1.77778 8.33919Z" fill="white" stroke="white" stroke-width="2.76824" stroke-linecap="square"/>
<path fill-rule="evenodd" clip-rule="evenodd" d="M1.87241 8.92982L6.69973 19.0843C6.88053 19.4646 7.32404 19.6352 7.70911 19.4727L21.8179 13.5172C22.2177 13.3485 22.4065 12.8839 22.2396 12.4797C22.2336 12.4652 22.2272 12.4509 22.2204 12.4367L17.2779 2.22256C17.0946 1.84372 16.6501 1.67615 16.2662 1.84117L2.27256 7.85626C1.87381 8.02768 1.68799 8.49342 1.85753 8.89657C1.86223 8.90777 1.8672 8.91884 1.87241 8.92982Z" stroke="white" stroke-width="2.76824" stroke-linecap="square"/>
<path fill-rule="evenodd" clip-rule="evenodd" d="M14.7878 17.3653V29.429C14.7878 29.8671 15.1391 30.2222 15.5724 30.2222C15.6766 30.2222 15.7799 30.2012 15.876 30.1604L29.5811 24.3439C29.9695 24.179 30.2222 23.7946 30.2222 23.3687V11.2305C30.2222 10.7924 29.871 10.4373 29.4377 10.4373C29.3322 10.4373 29.2278 10.4588 29.1307 10.5005L15.4246 16.392C15.0385 16.558 14.7878 16.9411 14.7878 17.3653Z" stroke="white" stroke-width="2.76824" stroke-linecap="square"/>
</g>
</g>
<path d="M57.008 21L56 18.232H50.928L49.92 21H48.448L52.752 9.64H54.144L58.48 21H57.008ZM51.376 17.016H55.552L53.472 11.336H53.44L51.376 17.016ZM62.2056 21.096C60.851 21.096 60.1736 20.2907 60.1736 18.68V14.328H59.1816V13.208H60.1736V10.552L61.4696 10.408V13.208H64.0616V14.328H61.4696V18.488C61.4696 18.968 61.539 19.32 61.6776 19.544C61.827 19.768 62.0776 19.88 62.4296 19.88C62.835 19.88 63.2723 19.7467 63.7416 19.48L64.0936 20.616C63.5176 20.936 62.8883 21.096 62.2056 21.096ZM75.0898 13.112C76.9138 13.112 77.8258 14.2213 77.8258 16.44V21H76.5298V16.792C76.5298 15.928 76.3804 15.2987 76.0818 14.904C75.7938 14.5093 75.3351 14.312 74.7058 14.312C74.0871 14.312 73.5698 14.568 73.1538 15.08C72.7378 15.592 72.5298 16.2747 72.5298 17.128V21H71.2338V16.776C71.2338 15.1333 70.6151 14.312 69.3778 14.312C68.7271 14.312 68.1884 14.568 67.7618 15.08C67.3351 15.592 67.1218 16.2747 67.1218 17.128V21H65.8418V13.208H67.1218V14.552H67.1378C67.4578 14.0933 67.8471 13.7413 68.3058 13.496C68.7644 13.24 69.2498 13.112 69.7618 13.112C71.0098 13.112 71.8364 13.624 72.2418 14.648H72.2578C72.8978 13.624 73.8418 13.112 75.0898 13.112ZM86.1706 13.208H87.4666V21H86.2186V19.768H86.2026C85.5413 20.6533 84.6346 21.096 83.4826 21.096C82.384 21.096 81.472 20.7333 80.7466 20.008C80.0213 19.2827 79.6586 18.3333 79.6586 17.16C79.6586 16.008 80.016 15.048 80.7306 14.28C81.456 13.5013 82.368 13.112 83.4666 13.112C84.576 13.112 85.472 13.5333 86.1546 14.376H86.1706V13.208ZM83.5946 19.912C84.32 19.912 84.9386 19.656 85.4506 19.144C85.9626 18.6213 86.2186 17.96 86.2186 17.16C86.2186 16.36 85.968 15.688 85.4666 15.144C84.976 14.5893 84.3573 14.312 83.6106 14.312C82.864 14.312 82.2346 14.5787 81.7226 15.112C81.2213 15.6347 80.9706 16.3173 80.9706 17.16C80.9706 17.96 81.2106 18.6213 81.6906 19.144C82.1813 19.656 82.816 19.912 83.5946 19.912ZM97.7673 21.096C96.1779 21.096 94.8339 20.5093 93.7353 19.336L94.6313 18.28C95.0259 18.7707 95.5059 19.144 96.0713 19.4C96.6366 19.656 97.2073 19.784 97.7833 19.784C98.4873 19.784 99.0473 19.6293 99.4633 19.32C99.8899 19.0107 100.103 18.584 100.103 18.04C100.103 17.7413 100.05 17.4853 99.9433 17.272C99.8473 17.0587 99.6766 16.872 99.4313 16.712C99.1859 16.5413 98.9459 16.408 98.7113 16.312C98.4873 16.2053 98.1619 16.072 97.7352 15.912C97.6606 15.88 97.6019 15.8587 97.5593 15.848C97.1433 15.6987 96.8019 15.5707 96.5353 15.464C96.2793 15.3467 95.9806 15.1867 95.6393 14.984C95.3086 14.7813 95.0473 14.5787 94.8553 14.376C94.6739 14.1627 94.5139 13.9013 94.3753 13.592C94.2366 13.272 94.1673 12.92 94.1673 12.536C94.1673 11.6933 94.5033 10.984 95.1753 10.408C95.8473 9.832 96.6686 9.53867 97.6393 9.528C98.9193 9.528 100.119 9.97067 101.239 10.856L100.391 11.944C99.5059 11.1973 98.5886 10.824 97.6393 10.824C97.0846 10.824 96.6099 10.9733 96.2153 11.272C95.8206 11.56 95.6233 11.96 95.6233 12.472C95.6233 12.6853 95.6659 12.8827 95.7513 13.064C95.8366 13.2347 95.9326 13.3787 96.0393 13.496C96.1459 13.6027 96.3326 13.7253 96.5993 13.864C96.8659 14.0027 97.0739 14.1093 97.2233 14.184C97.3833 14.248 97.6553 14.3547 98.0393 14.504C99.2126 14.952 99.9859 15.304 100.359 15.56C101.159 16.104 101.559 16.8827 101.559 17.896C101.559 18.8987 101.186 19.6827 100.439 20.248C99.7033 20.8133 98.8126 21.096 97.7673 21.096ZM105.737 21.096C104.382 21.096 103.705 20.2907 103.705 18.68V14.328H102.713V13.208H103.705V10.552L105.001 10.408V13.208H107.593V14.328H105.001V18.488C105.001 18.968 105.07 19.32 105.209 19.544C105.358 19.768 105.609 19.88 105.961 19.88C106.366 19.88 106.804 19.7467 107.273 19.48L107.625 20.616C107.049 20.936 106.42 21.096 105.737 21.096ZM114.701 13.208H115.997V21H114.701V19.704H114.685C114.034 20.632 113.181 21.096 112.125 21.096C111.197 21.096 110.477 20.8293 109.965 20.296C109.453 19.752 109.197 18.936 109.197 17.848V13.208H110.493V17.48C110.493 18.344 110.648 18.968 110.957 19.352C111.277 19.7253 111.757 19.912 112.397 19.912C113.037 19.912 113.581 19.6507 114.029 19.128C114.477 18.5947 114.701 17.88 114.701 16.984V13.208ZM124.388 9.224H125.684V21H124.452V19.768H124.42C123.759 20.6533 122.863 21.096 121.732 21.096C120.634 21.096 119.722 20.7333 118.996 20.008C118.271 19.2827 117.908 18.3333 117.908 17.16C117.908 16.008 118.266 15.048 118.98 14.28C119.706 13.5013 120.618 13.112 121.716 13.112C122.826 13.112 123.711 13.5333 124.372 14.376H124.388V9.224ZM121.844 19.912C122.548 19.912 123.156 19.656 123.668 19.144C124.18 18.6213 124.436 17.96 124.436 17.16C124.436 16.36 124.191 15.688 123.7 15.144C123.21 14.5893 122.596 14.312 121.86 14.312C121.114 14.312 120.484 14.5787 119.972 15.112C119.471 15.6347 119.22 16.3173 119.22 17.16C119.22 17.96 119.46 18.6213 119.94 19.144C120.431 19.656 121.066 19.912 121.844 19.912ZM128.938 11.768C128.671 11.768 128.447 11.6827 128.266 11.512C128.095 11.3307 128.01 11.112 128.01 10.856C128.01 10.6 128.095 10.3867 128.266 10.216C128.447 10.0347 128.671 9.944 128.938 9.944C129.194 9.944 129.412 10.0347 129.594 10.216C129.775 10.3973 129.866 10.6107 129.866 10.856C129.866 11.112 129.775 11.3307 129.594 11.512C129.412 11.6827 129.194 11.768 128.938 11.768ZM128.282 21V13.208H129.578V21H128.282ZM135.722 21.096C134.527 21.096 133.556 20.7173 132.81 19.96C132.063 19.2027 131.69 18.2533 131.69 17.112C131.69 15.9707 132.063 15.0213 132.81 14.264C133.556 13.496 134.527 13.112 135.722 13.112C136.874 13.112 137.828 13.4853 138.586 14.232C139.343 14.9787 139.722 15.9387 139.722 17.112C139.722 18.2853 139.343 19.2453 138.586 19.992C137.828 20.728 136.874 21.096 135.722 21.096ZM135.722 19.912C136.479 19.912 137.114 19.6507 137.626 19.128C138.148 18.5947 138.41 17.9227 138.41 17.112C138.41 16.2907 138.154 15.6187 137.642 15.096C137.13 14.5733 136.49 14.312 135.722 14.312C134.922 14.312 134.266 14.584 133.754 15.128C133.252 15.6613 133.002 16.3227 133.002 17.112C133.002 17.9013 133.252 18.568 133.754 19.112C134.266 19.6453 134.922 19.912 135.722 19.912ZM144.1 21.096C142.895 21.096 141.876 20.7227 141.044 19.976L141.716 19C142.388 19.6187 143.183 19.928 144.1 19.928C144.548 19.928 144.906 19.8267 145.172 19.624C145.439 19.4213 145.572 19.176 145.572 18.888C145.572 18.5893 145.439 18.3653 145.172 18.216C144.916 18.056 144.463 17.864 143.812 17.64C143.77 17.6293 143.738 17.6187 143.716 17.608C142.959 17.3413 142.378 17.0373 141.972 16.696C141.578 16.3547 141.38 15.8587 141.38 15.208C141.38 14.6107 141.62 14.1147 142.1 13.72C142.591 13.3147 143.21 13.112 143.956 13.112C144.948 13.112 145.839 13.432 146.628 14.072L145.956 15.096C145.338 14.5627 144.65 14.296 143.892 14.296C143.583 14.296 143.306 14.3813 143.06 14.552C142.815 14.7227 142.692 14.9413 142.692 15.208C142.692 15.4853 142.81 15.7093 143.044 15.88C143.29 16.0507 143.663 16.232 144.164 16.424C144.25 16.456 144.404 16.5147 144.628 16.6C144.863 16.6853 145.018 16.744 145.092 16.776C145.167 16.808 145.295 16.8667 145.476 16.952C145.658 17.0267 145.78 17.0853 145.844 17.128C145.908 17.16 146.004 17.2187 146.132 17.304C146.271 17.3893 146.362 17.464 146.404 17.528C146.458 17.592 146.522 17.6773 146.596 17.784C146.682 17.8907 146.74 17.9973 146.772 18.104C146.804 18.2 146.831 18.3173 146.852 18.456C146.874 18.584 146.884 18.7227 146.884 18.872C146.884 19.512 146.644 20.0453 146.164 20.472C145.684 20.888 144.996 21.096 144.1 21.096Z" fill="white"/>
<defs>
<clipPath id="clip0_3_39183">
<rect width="32" height="32" fill="white"/>
</clipPath>
<clipPath id="clip1_3_39183">
<rect width="32" height="32" fill="white"/>
</clipPath>
</defs>
</svg>
